# xmcd
#
# Track frame offsets: 
#        150
#        12825
#        25138
#        38815
#        52582
#        63844
#        76794
#        88969
#        102831
#        111904
#        125645
#        139277
#        151835
#        164489
#        174916
#        186768
#        198412
#        212209
#        222786
#        235799
#        247747
#        259096
#        272002
#        285193
#        295547
#        309180
#        318031
#        328944
#        342775
#
# Disc length: 4712 seconds
#
# Revision: 1
# Processed by: cddbd v1.5.2PL0 Copyright (c) Steve Scherf et al.
# Submitted via: ExactAudioCopy v1.0b1
#
DISCID=8512661d
DTITLE=Various Artist - Ike Turner: That Kat Sure Could Play!
DYEAR=2010
DGENRE=Blues
TTITLE0=Jackie Brenston and His Delta Cats - Rocket 88
TTITLE1=Jackie Brenston and His Delta Cats - Come Back Were You Belong
TTITLE2=Ike Turner and His Kings Of Rhythm - I'm Lonesome Baby
TTITLE3=Ike Turner and His Kings Of Rhythm - Heartbroken and Worried
TTITLE4=Jackie Brenston and His Delta Cats - My Real Gone Rocket
TTITLE5=Jackie Brenston and His Delta Cats - Independent Woman
TTITLE6=Howlin Wolf - How Many More Years
TTITLE7=Howlin Wolf - Riding The Moonlight
TTITLE8=Robert Bobby Bland - Dry Up Baby
TTITLE9=Robert Bobby Bland - Crying All Night Long
TTITLE10=B.B. King - Three O'Clock Blues
TTITLE11=B.B. King - Boogie Woogie Woman
TTITLE12=Boyd Gilmore - Ramblin' On My Mind
TTITLE13=Houston Baines - Going Home
TTITLE14=Houston Baines - Relation Blues
TTITLE15=Brother Bell - Whole Heap Of Mama
TTITLE16=Brother Bell - If You Feel Froggish
TTITLE17=Charley Booker - Rabbit Blues
TTITLE18=Charley Booker - No Ridin' Blues
TTITLE19=Roscoe Gordon - No More Doggin'
TTITLE20=Roscoe Gordon - Maria
TTITLE21=Drifting Slim - Good Morning Baby
TTITLE22=Drifting Slim - My Sweet Baby
TTITLE23=Sunny Blair - Step Back Baby
TTITLE24=Little Junior Parker - Bad Woman, Bad Whiskey
TTITLE25=Little Junior Parker - You're My Angel
TTITLE26=Bobby Blue Bland with Ike Turner Orchestra - Good Lovin'
TTITLE27=Bobby Blue Bland with Ike Turner Orchestra - Drifting From To
TTITLE27=wn To Town
TTITLE28=Ike Turner singing with Ben Burton And His Orchestra - You're
TTITLE28=Driving Me Insane
EXTD=
EXTT0=
EXTT1=
EXTT2=
EXTT3=
EXTT4=
EXTT5=
EXTT6=
EXTT7=
EXTT8=
EXTT9=
EXTT10=
EXTT11=
EXTT12=
EXTT13=
EXTT14=
EXTT15=
EXTT16=
EXTT17=
EXTT18=
EXTT19=
EXTT20=
EXTT21=
EXTT22=
EXTT23=
EXTT24=
EXTT25=
EXTT26=
EXTT27=
EXTT28=
PLAYORDER=
